<?xml version="1.0" standalone="no"?>
<!-- Creator: fig2dev Version 3.2.7a -->
<!-- CreationDate: 2022-03-24 18:58:29 -->
<!-- Magnification: 1.05 -->
<svg	xmlns="http://www.w3.org/2000/svg"
	xmlns:xlink="http://www.w3.org/1999/xlink"
	width="301pt" height="854pt"
	viewBox="2903 428 4769 13544">
<g fill="none">
<!-- Line -->
<rect x="2925" y="450" width="4725" height="13500" rx="105"
	stroke="#ffffff" stroke-width="15px"/>
<!-- Text -->
<text xml:space="preserve" x="3150" y="4140" fill="#000000" font-family="Helvetica" font-style="normal" font-weight="bold" font-size="216" text-anchor="middle">0</text>
<!-- Text -->
<text xml:space="preserve" x="7200" y="4140" fill="#000000" font-family="Helvetica" font-style="normal" font-weight="bold" font-size="216" text-anchor="middle">0</text>
<!-- Text -->
<text xml:space="preserve" x="5175" y="4140" fill="#000000" font-family="Helvetica" font-style="normal" font-weight="bold" font-size="216" text-anchor="middle">Pool:viscera</text>
<!-- Text -->
<text xml:space="preserve" x="3150" y="5715" fill="#000000" font-family="Helvetica" font-style="normal" font-weight="bold" font-size="216" text-anchor="middle">0</text>
<!-- Text -->
<text xml:space="preserve" x="7200" y="5715" fill="#000000" font-family="Helvetica" font-style="normal" font-weight="bold" font-size="216" text-anchor="middle">0</text>
<!-- Text -->
<text xml:space="preserve" x="5175" y="5715" fill="#000000" font-family="Helvetica" font-style="normal" font-weight="bold" font-size="216" text-anchor="middle">Pool:lean</text>
<!-- Text -->
<text xml:space="preserve" x="3150" y="7290" fill="#000000" font-family="Helvetica" font-style="normal" font-weight="bold" font-size="216" text-anchor="middle">0</text>
<!-- Text -->
<text xml:space="preserve" x="7200" y="7290" fill="#000000" font-family="Helvetica" font-style="normal" font-weight="bold" font-size="216" text-anchor="middle">0</text>
<!-- Text -->
<text xml:space="preserve" x="5175" y="7290" fill="#000000" font-family="Helvetica" font-style="normal" font-weight="bold" font-size="216" text-anchor="middle">Pool:fat</text>
<!-- Text -->
<text xml:space="preserve" x="3150" y="8865" fill="#000000" font-family="Helvetica" font-style="normal" font-weight="bold" font-size="216" text-anchor="middle">0</text>
<!-- Text -->
<text xml:space="preserve" x="7200" y="8865" fill="#000000" font-family="Helvetica" font-style="normal" font-weight="bold" font-size="216" text-anchor="middle">0</text>
<!-- Text -->
<text xml:space="preserve" x="5175" y="8865" fill="#000000" font-family="Helvetica" font-style="normal" font-weight="bold" font-size="216" text-anchor="middle">Pool:shunt</text>
<!-- Text -->
<text xml:space="preserve" x="3150" y="10440" fill="#000000" font-family="Helvetica" font-style="normal" font-weight="bold" font-size="216" text-anchor="middle">0</text>
<!-- Text -->
<text xml:space="preserve" x="7200" y="10440" fill="#000000" font-family="Helvetica" font-style="normal" font-weight="bold" font-size="216" text-anchor="middle">0</text>
<!-- Text -->
<text xml:space="preserve" x="5175" y="10440" fill="#000000" font-family="Helvetica" font-style="normal" font-weight="bold" font-size="216" text-anchor="middle">Pool:white</text>
<!-- Text -->
<text xml:space="preserve" x="3150" y="12015" fill="#000000" font-family="Helvetica" font-style="normal" font-weight="bold" font-size="216" text-anchor="middle">0</text>
<!-- Text -->
<text xml:space="preserve" x="7200" y="12015" fill="#000000" font-family="Helvetica" font-style="normal" font-weight="bold" font-size="216" text-anchor="middle">0</text>
<!-- Text -->
<text xml:space="preserve" x="5175" y="12015" fill="#000000" font-family="Helvetica" font-style="normal" font-weight="bold" font-size="216" text-anchor="middle">Pool:grey</text>
<!-- Text -->
<text xml:space="preserve" x="3150" y="13590" fill="#000000" font-family="Helvetica" font-style="normal" font-weight="bold" font-size="216" text-anchor="middle">0</text>
<!-- Text -->
<text xml:space="preserve" x="7200" y="13590" fill="#000000" font-family="Helvetica" font-style="normal" font-weight="bold" font-size="216" text-anchor="middle">0</text>
<!-- Text -->
<text xml:space="preserve" x="5175" y="13590" fill="#000000" font-family="Helvetica" font-style="normal" font-weight="bold" font-size="216" text-anchor="middle">Pool:kidney</text>
<!-- Text -->
<text xml:space="preserve" x="5175" y="2565" fill="#000000" font-family="Helvetica" font-style="normal" font-weight="bold" font-size="216" text-anchor="middle">0</text>
<!-- Text -->
<text xml:space="preserve" x="5175" y="990" fill="#000000" font-family="Helvetica" font-style="normal" font-weight="bold" font-size="216" text-anchor="middle">Ce:Av</text>
<!-- Text -->
<text xml:space="preserve" x="3375" y="990" fill="#000000" font-family="Helvetica" font-style="normal" font-weight="bold" font-size="216" text-anchor="middle">Ce:L</text>
<!-- Text -->
<text xml:space="preserve" x="4275" y="1665" fill="#000000" font-family="Helvetica" font-style="normal" font-weight="bold" font-size="216" text-anchor="middle">Re:rav</text>
<!-- Text -->
<text xml:space="preserve" x="5850" y="3870" fill="#ff0000" font-family="Helvetica" font-style="normal" font-weight="bold" font-size="168" text-anchor="middle">[Art]</text>
<!-- Text -->
<text xml:space="preserve" x="4500" y="3870" fill="#ff0000" font-family="Helvetica" font-style="normal" font-weight="bold" font-size="168" text-anchor="middle">[Ven]</text>
<!-- Text -->
<text xml:space="preserve" x="5850" y="5445" fill="#ff0000" font-family="Helvetica" font-style="normal" font-weight="bold" font-size="168" text-anchor="middle">[Art]</text>
<!-- Text -->
<text xml:space="preserve" x="4500" y="5445" fill="#ff0000" font-family="Helvetica" font-style="normal" font-weight="bold" font-size="168" text-anchor="middle">[Ven]</text>
<!-- Text -->
<text xml:space="preserve" x="5850" y="7020" fill="#ff0000" font-family="Helvetica" font-style="normal" font-weight="bold" font-size="168" text-anchor="middle">[Art]</text>
<!-- Text -->
<text xml:space="preserve" x="4500" y="7020" fill="#ff0000" font-family="Helvetica" font-style="normal" font-weight="bold" font-size="168" text-anchor="middle">[Ven]</text>
<!-- Text -->
<text xml:space="preserve" x="5850" y="8595" fill="#ff0000" font-family="Helvetica" font-style="normal" font-weight="bold" font-size="168" text-anchor="middle">[Art]</text>
<!-- Text -->
<text xml:space="preserve" x="4500" y="8595" fill="#ff0000" font-family="Helvetica" font-style="normal" font-weight="bold" font-size="168" text-anchor="middle">[Ven]</text>
<!-- Text -->
<text xml:space="preserve" x="5850" y="10170" fill="#ff0000" font-family="Helvetica" font-style="normal" font-weight="bold" font-size="168" text-anchor="middle">[Art]</text>
<!-- Text -->
<text xml:space="preserve" x="4500" y="10170" fill="#ff0000" font-family="Helvetica" font-style="normal" font-weight="bold" font-size="168" text-anchor="middle">[Ven]</text>
<!-- Text -->
<text xml:space="preserve" x="5850" y="11745" fill="#ff0000" font-family="Helvetica" font-style="normal" font-weight="bold" font-size="168" text-anchor="middle">[Art]</text>
<!-- Text -->
<text xml:space="preserve" x="4500" y="11745" fill="#ff0000" font-family="Helvetica" font-style="normal" font-weight="bold" font-size="168" text-anchor="middle">[Ven]</text>
<!-- Text -->
<text xml:space="preserve" x="5850" y="13320" fill="#ff0000" font-family="Helvetica" font-style="normal" font-weight="bold" font-size="168" text-anchor="middle">[Art]</text>
<!-- Text -->
<text xml:space="preserve" x="4500" y="13320" fill="#ff0000" font-family="Helvetica" font-style="normal" font-weight="bold" font-size="168" text-anchor="middle">[Ven]</text>
<!-- Line -->
<polyline points=" 5175,2250 5175,1125 5400,1350"
	stroke="#000000" stroke-width="15px"/>
<!-- Line -->
<polyline points=" 6975,4050 5850,4050 6075,4275"
	stroke="#000000" stroke-width="15px"/>
<!-- Line -->
<polyline points=" 4500,4050 3375,4050 3600,4275"
	stroke="#000000" stroke-width="15px"/>
<!-- Line -->
<polyline points=" 7200,4275 7200,5400 7425,5175"
	stroke="#000000" stroke-width="15px"/>
<!-- Line -->
<polyline points=" 3150,5400 3150,4275 3375,4500"
	stroke="#000000" stroke-width="15px"/>
<!-- Line -->
<polyline points=" 6975,5625 5850,5625 6075,5850"
	stroke="#000000" stroke-width="15px"/>
<!-- Line -->
<polyline points=" 4500,5625 3375,5625 3600,5850"
	stroke="#000000" stroke-width="15px"/>
<!-- Line -->
<polyline points=" 7200,5850 7200,6975 7425,6750"
	stroke="#000000" stroke-width="15px"/>
<!-- Line -->
<polyline points=" 3150,6975 3150,5850 3375,6075"
	stroke="#000000" stroke-width="15px"/>
<!-- Line -->
<polyline points=" 6975,7200 5850,7200 6075,7425"
	stroke="#000000" stroke-width="15px"/>
<!-- Line -->
<polyline points=" 4500,7200 3375,7200 3600,7425"
	stroke="#000000" stroke-width="15px"/>
<!-- Line -->
<polyline points=" 7200,7425 7200,8550 7425,8325"
	stroke="#000000" stroke-width="15px"/>
<!-- Line -->
<polyline points=" 3150,8550 3150,7425 3375,7650"
	stroke="#000000" stroke-width="15px"/>
<!-- Line -->
<polyline points=" 6975,8775 5850,8775 6075,9000"
	stroke="#000000" stroke-width="15px"/>
<!-- Line -->
<polyline points=" 4500,8775 3375,8775 3600,9000"
	stroke="#000000" stroke-width="15px"/>
<!-- Line -->
<polyline points=" 7200,9000 7200,10125 7425,9900"
	stroke="#000000" stroke-width="15px"/>
<!-- Line -->
<polyline points=" 3150,10125 3150,9000 3375,9225"
	stroke="#000000" stroke-width="15px"/>
<!-- Line -->
<polyline points=" 6975,10350 5850,10350 6075,10575"
	stroke="#000000" stroke-width="15px"/>
<!-- Line -->
<polyline points=" 4500,10350 3375,10350 3600,10575"
	stroke="#000000" stroke-width="15px"/>
<!-- Line -->
<polyline points=" 7200,10575 7200,11700 7425,11475"
	stroke="#000000" stroke-width="15px"/>
<!-- Line -->
<polyline points=" 3150,11700 3150,10575 3375,10800"
	stroke="#000000" stroke-width="15px"/>
<!-- Line -->
<polyline points=" 6975,11925 5850,11925 6075,12150"
	stroke="#000000" stroke-width="15px"/>
<!-- Line -->
<polyline points=" 4500,11925 3375,11925 3600,12150"
	stroke="#000000" stroke-width="15px"/>
<!-- Line -->
<polyline points=" 7200,12150 7200,13275 7425,13050"
	stroke="#000000" stroke-width="15px"/>
<!-- Line -->
<polyline points=" 3150,13275 3150,12150 3375,12375"
	stroke="#000000" stroke-width="15px"/>
<!-- Line -->
<polyline points=" 6975,13500 5850,13500 6075,13725"
	stroke="#000000" stroke-width="15px"/>
<!-- Line -->
<polyline points=" 4500,13500 3375,13500 3600,13725"
	stroke="#000000" stroke-width="15px"/>
<!-- Line -->
<polyline points=" 3150,3825 3150,2475 4950,2475 4725,2700"
	stroke="#000000" stroke-width="15px"/>
<!-- Line -->
<polyline points=" 5400,2475 7200,2475 7200,3825 7425,3600"
	stroke="#000000" stroke-width="15px"/>
<!-- Line -->
<polyline points=" 4725,2250 4950,2250 4500,1800"
	stroke="#000000" stroke-width="15px"/>
<!-- Line -->
<polyline points=" 3825,1350 4050,1350 3600,900"
	stroke="#000000" stroke-width="15px"/>
</g>
</svg>
